<?xml version="1.0" encoding="iso-8859-1"?><!-- Generator: Adobe Illustrator 21.1.0, SVG Export Plug-In . SVG Version: 6.00 Build 0)  --><svg fill="#ffdb6e" xmlns="http://www.w3.org/2000/svg" xmlns:xlink="http://www.w3.org/1999/xlink" viewBox="0 0 50 50" width="40px" height="40px"><g><g><circle cx="13" cy="24" r="1"/><path d="M18,34.184c1.161,0.414,2,1.514,2,2.816c0,1.654-1.346,3-3,3s-3-1.346-3-3c0-1.302,0.839-2.402,2-2.816V28h8v-8h-6v-5h-2.184c-0.414,1.161-1.514,2-2.816,2c-1.654,0-3-1.346-3-3s1.346-3,3-3c1.302,0,2.402,0.839,2.816,2H20v5h4V7.187C24,2.349,22.247,2,19.361,2c-4.079,0-7.06,2.483-8.114,5.115C7.136,8.016,4,12.649,4,18c0,1.599,0.31,3.201,0.974,5h5.21c0.414-1.161,1.514-2,2.816-2c1.654,0,3,1.346,3,3s-1.346,3-3,3c-1.302,0-2.402-0.839-2.816-2H5.297C4.562,26.003,4,27.237,4,29c0,2.778,1.739,5.2,4.61,6.524c-0.797,1.854-0.764,3.679,0.116,5.227c1.034,1.819,3.11,3.013,5.526,3.218C15.425,47.129,18.576,48,20.361,48C22.021,48,24,47.19,24,43.333V30h-6V34.184z"/><circle cx="13" cy="14" r="1"/><circle cx="17" cy="37" r="1"/></g><path d="M46,18c0-5.351-3.136-9.983-7.247-10.884C37.698,4.483,34.718,2,30.639,2C27.753,2,26,2.349,26,7.187V13h8.184c0.477-1.336,1.861-2.245,3.416-1.941c1.175,0.23,2.131,1.198,2.348,2.376C40.297,15.336,38.839,17,37,17c-1.302,0-2.402-0.839-2.816-2H26v21h4.184c0.477-1.336,1.861-2.245,3.416-1.941c1.175,0.23,2.131,1.198,2.348,2.376C36.297,38.336,34.839,40,33,40c-1.302,0-2.402-0.839-2.816-2H26v5.334C26,47.191,27.979,48,29.639,48c1.785,0,4.937-0.871,6.108-4.031c2.416-0.205,4.492-1.399,5.526-3.218c0.422-0.742,0.646-1.548,0.678-2.39c0.04-1.042-0.405-2.009-0.858-2.948C41.034,35.288,41,35.149,41,35v-4h-9v-5.184c-1.336-0.476-2.245-1.861-1.941-3.416c0.23-1.175,1.198-2.131,2.376-2.348C34.336,19.703,36,21.161,36,23c0,1.302-0.839,2.402-2,2.816V29h9v5.563c1.89-1.386,3-3.357,3-5.563c0-2.015-0.734-3.339-1.622-4.417C45.497,22.105,46,20.052,46,18z"/><circle cx="33" cy="23" r="1"/><circle cx="37" cy="14" r="1"/><circle cx="33" cy="37" r="1"/></g></svg>