<?xml version="1.0" encoding="utf-8"?>
<!-- Generator: Adobe Illustrator 22.0.1, SVG Export Plug-In . SVG Version: 6.00 Build 0)  -->
<svg fill="#ffdb6e" version="1.1" id="Layer_1" xmlns="http://www.w3.org/2000/svg" xmlns:xlink="http://www.w3.org/1999/xlink" x="0px" y="0px"
	 viewBox="0 0 68 68" style="enable-background:new 0 0 68 68;" xml:space="preserve">
<g id="Statistics">
	<path d="M3,56.1113281c-0.5522461,0-1,0.4477539-1,1s0.4477539,1,1,1h1.3710938v4.5175781c0,0.5517578,0.4477539,1,1,1h4.5175781
		V65c0,0.5517578,0.4477539,1,1,1s1-0.4482422,1-1v-1.3710938h0.2719727h5.8271484V65c0,0.5517578,0.4477539,1,1,1s1-0.4482422,1-1
		v-1.3710938h4.4365234h1.6625977V65c0,0.5517578,0.4477539,1,1,1s1-0.4482422,1-1v-1.3710938h3.2250977h2.8735352V65
		c0,0.5517578,0.4477539,1,1,1s1-0.4482422,1-1v-1.3710938h0.5029297h5.5961914V65c0,0.5517578,0.4477539,1,1,1s1-0.4482422,1-1
		v-1.3710938h4.6674805h1.4316406V65c0,0.5517578,0.4477539,1,1,1s1-0.4482422,1-1v-1.3710938h3.4560547h2.6430664V65
		c0,0.5517578,0.4477539,1,1,1s1-0.4482422,1-1v-1.3710938H65c0.5522461,0,1-0.4482422,1-1c0-0.5527344-0.4477539-1-1-1h-8.1599121
		V42.5546875c0-0.0004883-0.0002441-0.0009766-0.0002441-0.0009766V37c0-0.5527344-0.4477539-1-1-1h-6.8876953
		c-0.5522461,0-1,0.4472656-1,1v5.5449219c0,0.003418-0.0019531,0.0063477-0.0019531,0.0097656v19.0742188h-3.3701172v-7.3242188
		c0-0.0078125-0.0041504-0.0141602-0.0043945-0.0214844v-5.5810547c0-0.5527344-0.4477539-1-1-1h-6.887207
		c-0.5522461,0-1,0.4472656-1,1v12.9267578h-3.3764648V41.5043945c0-0.5522461-0.4477539-1-1-1h-6.8876953
		c-0.5522461,0-1,0.4477539-1,1v7.1796875c-0.0002441,0.0073242-0.0041504,0.0131836-0.0041504,0.0205078v12.9243164h-3.3701172
		v-3.3242188c0-0.0029297-0.001709-0.0053711-0.001709-0.0083008v-5.5600586c0-0.5517578-0.4477539-1-1-1h-6.8876953
		c-0.5522461,0-1,0.4482422-1,1v5.565918c0,0.0009766-0.0004883,0.0014648-0.0004883,0.0024414v3.3242188H6.3710938V3
		c0-0.5527344-0.4477539-1-1-1s-1,0.4472656-1,1v4.5175781H3c-0.5522461,0-1,0.4472656-1,1c0,0.5517578,0.4477539,1,1,1h1.3710938
		v6.0986328H3c-0.5522461,0-1,0.4482422-1,1c0,0.5527344,0.4477539,1,1,1h1.3710938v6.0991211H3c-0.5522461,0-1,0.4477539-1,1
		s0.4477539,1,1,1h1.3710938v6.0991211H3c-0.5522461,0-1,0.4472656-1,1c0,0.5517578,0.4477539,1,1,1h1.3710938v6.0986328H3
		c-0.5522461,0-1,0.4482422-1,1c0,0.5527344,0.4477539,1,1,1h1.3710938v6.0991211H3c-0.5522461,0-1,0.4477539-1,1s0.4477539,1,1,1
		h1.3710938v6.0991211H3z M49.9521484,38h4.8876953v3.5546875h-4.8876953V38z M37.6884766,49.7021484h4.887207v3.6025391h-4.887207
		V49.7021484z M25.4243164,42.5043945h4.8876953v5.2001953h-4.8876953V42.5043945z M13.1606445,53.7363281h4.8876953v3.5683594
		h-4.8876953V53.7363281z"/>
	<path d="M30.6806641,29.8125c0-1.5551758-1.260498-2.815918-2.8156738-2.815918
		c-1.5549316,0-2.8154297,1.2607422-2.8154297,2.815918c0,0.171875,0.0209961,0.3388672,0.0505371,0.5024414l-7.9228516,5.5991211
		c-0.4489746-0.3027344-0.9899902-0.4799805-1.5722656-0.4799805c-1.5549316,0-2.8154297,1.2607422-2.8154297,2.815918
		c0,1.5546875,1.260498,2.8154297,2.8154297,2.8154297c1.5551758,0,2.8156738-1.2607422,2.8156738-2.8154297
		c0-0.2421875-0.0397949-0.4731445-0.0974121-0.6972656l7.8210449-5.5268555
		c0.4770508,0.371582,1.0693359,0.6020508,1.7207031,0.6020508c0.5981445,0,1.1506348-0.1894531,1.6066895-0.5073242
		l7.9875488,6.2958984C37.376709,38.6816406,37.3195801,38.9575195,37.3195801,39.25
		c0,1.5546875,1.260498,2.8154297,2.8154297,2.8154297c1.5551758,0,2.8156738-1.2607422,2.8156738-2.8154297
		c0-0.4013672-0.0866699-0.78125-0.237793-1.1269531l8.5061035-8.3227539
		c0.3591309,0.1660156,0.755127,0.2651367,1.1767578,0.2651367c1.5551758,0,2.8156738-1.2607422,2.8156738-2.8154297
		c0-1.5551758-1.260498-2.815918-2.8156738-2.815918c-1.5549316,0-2.8154297,1.2607422-2.8154297,2.815918
		c0,0.4003906,0.0859375,0.7792969,0.2365723,1.1240234l-8.5070801,8.3242188
		c-0.3586426-0.1655273-0.7539063-0.2641602-1.1748047-0.2641602c-0.5290527,0-1.0185547,0.1547852-1.4414063,0.4086914
		l-8.095459-6.3808594C30.6477051,30.2524414,30.6806641,30.0366211,30.6806641,29.8125z"/>
	<path d="M14.019043,9.4233398h2.2543945c1.3081055,0,2.3725586-1.0644531,2.3725586-2.3725586V4.7958984
		c0-1.3081055-1.0644531-2.3725586-2.3725586-2.3725586H14.019043c-1.3085938,0-2.3730469,1.0644531-2.3730469,2.3725586v2.2548828
		C11.6459961,8.3588867,12.7104492,9.4233398,14.019043,9.4233398z M13.6459961,4.7958984
		c0-0.2050781,0.1674805-0.3725586,0.3730469-0.3725586h2.2543945c0.2055664,0,0.3725586,0.1674805,0.3725586,0.3725586v2.2548828
		c0,0.2050781-0.1669922,0.3725586-0.3725586,0.3725586H14.019043c-0.2055664,0-0.3730469-0.1674805-0.3730469-0.3725586V4.7958984z
		"/>
	<path d="M17.1096191,11.5678711h-3.9289551c-0.8452148,0-1.5305176,0.6855469-1.5305176,1.5307617v3.9389648
		c0,0.8452148,0.6853027,1.5302734,1.5305176,1.5302734h3.9387207c0.845459,0,1.5307617-0.6850586,1.5307617-1.5302734v-3.9291992
		C18.6501465,12.2612305,17.9567871,11.5678711,17.1096191,11.5678711z"/>
	<path d="M23.2875977,6.1484375h10.8125c0.5522461,0,1-0.4482422,1-1c0-0.5527344-0.4477539-1-1-1h-10.8125
		c-0.5522461,0-1,0.4472656-1,1C22.2875977,5.7001953,22.7353516,6.1484375,23.2875977,6.1484375z"/>
	<path d="M23.2875977,15.6484375h10.8125c0.5522461,0,1-0.4482422,1-1c0-0.5527344-0.4477539-1-1-1h-10.8125
		c-0.5522461,0-1,0.4472656-1,1C22.2875977,15.2001953,22.7353516,15.6484375,23.2875977,15.6484375z"/>
</g>
</svg>